<svg id="Layer_1" data-name="Layer 1" xmlns="http://www.w3.org/2000/svg" viewBox="0 0 209.62 163.62">
  <defs>
    <style>
      .cls-1, .cls-11, .cls-19 {
        fill: #5b7387;
      }

      .cls-1 {
        opacity: 0.85;
      }

      .cls-1, .cls-11, .cls-14, .cls-16, .cls-17, .cls-2 {
        isolation: isolate;
      }

      .cls-2, .cls-7 {
        fill: #090b0c;
      }

      .cls-16, .cls-17, .cls-2 {
        opacity: 0.9;
      }

      .cls-3 {
        fill: #000305;
      }

      .cls-4 {
        fill: #070a0c;
      }

      .cls-5 {
        fill: #101619;
      }

      .cls-6 {
        fill: #e6e6e6;
      }

      .cls-23, .cls-24, .cls-27, .cls-40, .cls-8 {
        fill: none;
      }

      .cls-9 {
        fill: #2e3a44;
      }

      .cls-10 {
        fill: #000405;
      }

      .cls-11, .cls-14 {
        opacity: 0.75;
      }

      .cls-12, .cls-14 {
        fill: #9dabb7;
      }

      .cls-13 {
        fill: #7c8f9f;
      }

      .cls-15 {
        fill: #000507;
      }

      .cls-16 {
        fill: #171d22;
      }

      .cls-17 {
        fill: #18232a;
      }

      .cls-18 {
        fill: #536e81;
      }

      .cls-20 {
        fill: #445665;
      }

      .cls-21 {
        fill: #444243;
      }

      .cls-21, .cls-22, .cls-23, .cls-24, .cls-25, .cls-27, .cls-28, .cls-29, .cls-30, .cls-31, .cls-32, .cls-38 {
        stroke: #000;
      }

      .cls-21, .cls-22, .cls-23, .cls-24, .cls-25, .cls-27, .cls-28, .cls-29, .cls-30, .cls-31, .cls-32, .cls-37, .cls-38, .cls-40 {
        stroke-miterlimit: 10;
      }

      .cls-21, .cls-27, .cls-29, .cls-37, .cls-40 {
        stroke-width: 0.5px;
      }

      .cls-22 {
        fill: #bcbbbb;
      }

      .cls-24, .cls-30, .cls-38 {
        stroke-width: 0.25px;
      }

      .cls-25, .cls-28, .cls-29, .cls-30 {
        fill: #9e9e9e;
      }

      .cls-26 {
        fill: #605f60;
      }

      .cls-28 {
        stroke-width: 0.75px;
      }

      .cls-31, .cls-36 {
        fill: #333;
      }

      .cls-32 {
        fill: #ddd;
      }

      .cls-33 {
        fill: gray;
      }

      .cls-34, .cls-38 {
        fill: #1a1a1a;
      }

      .cls-35 {
        fill: #666;
      }

      .cls-37, .cls-39 {
        fill: #f2f2f2;
      }

      .cls-37, .cls-40 {
        stroke: #231f20;
      }

      .cls-37, .cls-38, .cls-40 {
        stroke-linecap: round;
      }
    </style>
  </defs>
  <title>frankenstein</title>
  <g id="castle">
    <path class="cls-1" d="M154.82,89.86c.72-.23,2.73,2.42,8.79,6.78,0,0,6.16,4.5,5.55,6.4-.42,1.33-2.1,1-5,3.81a13.12,13.12,0,0,0-2.79,3.7,7.56,7.56,0,0,0-.79,2.22c-.42,2.6,1.2,4,.64,4.34-1.49,1-17.43-5.91-16-10.8,1.06-3.61,10.41-3.24,12.56-7.73C159.76,94.48,153.83,90.17,154.82,89.86Z" transform="translate(0.62 -8.6)"/>
    <path class="cls-1" d="M135.81,78.43c0,2.26,0,5.14,2.07,6.45,2.49,1.58,5.85-.53,9.45.49a9.62,9.62,0,0,1,6.54,10.3c-1,5.79-8.32,6.36-8.66,10.64-.48,6.2,14.84,7.86,17.25,15.39,3,9.23-13.15,18.06-23,21-2.4.71-7,2-10,.84s-3-4.37-3-5.51c0-2.48,1.28-4,1.93-5.25,1.59-3,.29-5.35-6-16.08-6.2-10.53-6.29-10.48-6.24-11,.63-6.62,10-7.29,15.77-16.33,4.28-6.66,3.91-13.62,4.12-13.59S135.8,76.83,135.81,78.43Z" transform="translate(0.62 -8.6)"/>
    <path class="cls-2" d="M158.21,97a7,7,0,0,1-2.57,5l-.34.29c-3.35,2.7-10,1.67-11.1,3-1.35,1.6,7.43,5,16.05,12,2.66,2.18,9.21,7.62,6.57,9.85-1,.88-2.58.49-5.27,1.64a9.38,9.38,0,0,0-5.32,5c-1.81,4.32,2.8,7.07.35,8.39-.55.3-.86.2-9,.49-2.94.11-3.16.13-3.59,0-3.6-1.13-4.4-8.05,1-12.18,4.25-3.22,9.28-2.43,11.12-5.44,1.7-2.78-1-5.9-2.57-7.7a24.4,24.4,0,0,0-8.93-6c-1.28-.5-3-1.18-5-2-2.88-1.2-3.2-1.4-3.44-1.71-1.15-1.58,1.41-4.3,5.11-5.16,3-.71,4.18.46,6.79-.42a18.6,18.6,0,0,0,5.36-3.49l.49-.41a1.74,1.74,0,0,0,.41-1.34c-.11-2.22-.16-3.34-.66-4.11s-.72-.58-3.41-3.18a18.13,18.13,0,0,1-1.61-1.84c-.14-.18-1.57-2.07-1.1-2.32.19-.11.57.17,1.26.07.38-.06.38-.16.65-.19.71-.08,1.48.61,2.42,1.48.41.38.71.7.9.9,0,0,.43.46.86,1a30.11,30.11,0,0,1,2.86,4.22C157.68,94.93,158.2,95.94,158.21,97Z" transform="translate(0.62 -8.6)"/>
    <path class="cls-3" d="M162.21,107.43c-.11,0-.56-3.38-2.58-3.76-.78-.15-1.21.27-3.23,1a18.91,18.91,0,0,1-4.82,1.1s5.83-.7,7.19-3.25c.27-.5.36-1.08.71-1.09.51,0,1.07,1.28,1.7,2.8A11.87,11.87,0,0,1,162.21,107.43Z" transform="translate(0.62 -8.6)"/>
    <path class="cls-3" d="M168.61,102c-.15-1-1.61-1.64-2.51-2.1-4.85-2.48-6.27-6.19-6.68-6.06s.52,1.71,1.84,3.24c1.85,2.13,3.12,2.22,4.44,4.18,3.67,5.44-1.72,2.26,1.6,2.44A1.6,1.6,0,0,0,168.61,102Z" transform="translate(0.62 -8.6)"/>
    <path d="M151.78,107.34a9.21,9.21,0,0,1,5.62,1c2.21,1.23,2.82,3.22,2.61,3.31s-1-1.62-3.59-2.9A19.29,19.29,0,0,0,151.78,107.34Z" transform="translate(0.62 -8.6)"/>
    <path class="cls-4" d="M137.7,74c.23,0,.65,2.76.53,5.91-.1,2.73-.55,4.48.89,5.25a6.48,6.48,0,0,0,2.5.36c3.19.19,6,.06,6,.09a40.55,40.55,0,0,0-5.75.84c-1.63.37-2.14.64-2.29,1-.25.65.65,1.62,1.76,1.9,2.29.58,5.07-1.83,5.48-1.52.26.19-.62,1.31-1.74,2.17s-1.82,1-2,1.71a1.17,1.17,0,0,0,.53,1.39c1.11.53,3.37-.87,3.53-.72s-1.34,1.81-4,2.28-4.17-.69-6.33.12c-.79.29-1.81.91-1.69,1.5.16.76,2.18,1.25,3.7,1.33a12.75,12.75,0,0,0,6.44-1.7,9.23,9.23,0,0,1-5.88,2.64c-1.43.14-2.81,0-3.84.7-.48.34-1,1-.73,1.32.65.85,5.18-.29,5.37.05.34.63-14.42,4.7-14,5.6.15.31,2,.23,3.48,0a14.83,14.83,0,0,0,5.22-2.22c.1.08-1.34,1.58-4,2.73-1.41.63-2.71.93-2.62,1.22s1,.31,1.56.31a9,9,0,0,0,3.88-1.15c.1.08-.76.87-2.67,1.9-3.14,1.7-5.94,2.23-5.86,2.41s8.48-1.19,8.6-.91-3.42.5-5.23,2.44c-1.26,1.36-1.56,3.34-.59,3.82.23.11.47,0,2.88-.53l1.61-.37c2.91-.74,4.75-3.9,5-3.81s-.19,3.34-3.52,5c-2.52,1.27-5.25,1-5.51,2s1.58,1.81,1.76,1.9a4.83,4.83,0,0,0,2.8.6c2.13-.34,2.8-2.85,3-2.78s.11,1.43-1.15,2.66c-1.51,1.48-3.74,1.76-3.63,2.07s2.24.48,4.11,0c5.21-1.37,6.59-7.9,7.19-7.77s.51,4.39-2.83,8.68c-2.33,3-5.56,5.06-5.42,5.15a24.05,24.05,0,0,1,9.83-4.92c3.48-.76,6.63-.51,6.66-.33s-3.71.18-7.41,1.88c-3.22,1.47-5.5,4-4.76,4.73s4-.24,4.11,0-5.29,1.91-5.51,2c-1.86.55-2.47.68-2.93,1.2-.24.28-.59.84.09,3.17s1,3.33,1.93,3.95c2,1.3,5.25.66,5.31,1s-1.9.7-5.45,1.07c-8,.84-9.23.63-9.83.39a4.3,4.3,0,0,1-2.69-3c-1-3.13,3-3.93,3.76-7.63.24-1.19-.9-3.45-2.29-8.05a24.45,24.45,0,0,0-1.6-3.92c-1.36-2.73-4.08-6.93-7.66-7.87-2.65-.7-4,.79-8.85,0a11.25,11.25,0,0,1-5.24-1.86c-1.65-1.31-.82-2.21-2.23-4.19a10.56,10.56,0,0,0-5.12-3.66c-5.71-1.45-13.28,5.43-13.65,5.17S96.17,96.52,97.75,97.49c.4.25-.2,1.27.52,1.61.24.11.65.16,2.24-.34,2.41-.75,2.64-1.22,3.56-1.17,1.22.06,1.21.9,2.75,1.28,1.83.45,2.59-.54,4.44-.22,2.17.37,2.29,1.93,4,2,2,.1,2.89-2,4.24-1.81,1.82.27,1.19,4.26,2.83,4.68,2.17.55,8.18-5.19,11.65-12.74C138,82,137.31,74,137.7,74Z" transform="translate(0.62 -8.6)"/>
    <path class="cls-5" d="M55.41,97.53l1.8-3.07,5.62,1,5-7.44,6.93.36,1.39-15.09,3.46.18,6.16,2.36-.31,4.29,2.12,1.25a13.47,13.47,0,0,0,2.37-6.67A12.81,12.81,0,0,0,89,69.21l-2.19-.36,5.6-7.63,9.6-1.53c3,6.31,3.63,8.94,2.83,9.2-.17.06-.48,0-.65.19-.35.36.4,1.21,1.43,2.11l4.38.68a37.3,37.3,0,0,0-.12-7.25,14.29,14.29,0,0,1-.14-2.51,13.67,13.67,0,0,1,1-4.48,18.51,18.51,0,0,1,1.5-2.93A30.78,30.78,0,0,1,114,52c.62-.84,1.19-1.51,1.64-2l4.23,7.45q.36,4,.7,8,.26,3.08.51,6.14l16.05,1.07,6-4L151,74.48l-1.41,11-7.43,0-4.27,0,5.37,4.58,3.66,6.3L135,102.61l-7.82,3.21L121,113.65,106.61,112,99,106.69A19.62,19.62,0,0,1,74.61,103l-6.6-.24L65.5,97.79a11.3,11.3,0,0,0-5.79-1.32A11.13,11.13,0,0,0,55.41,97.53Z" transform="translate(0.62 -8.6)"/>
    <path class="cls-6" d="M112.88,60.47a18.77,18.77,0,0,1-.19,2.6c-.23,1.65-.56,2.39.13,2.84a4.87,4.87,0,0,0,2.26.34,18.64,18.64,0,0,0,2.62-.09l0-5.22Z" transform="translate(0.62 -8.6)"/>
    <path class="cls-7" d="M149.55,85.26c.46-2.43.51-2.69.51-2.69.35-1.74.61-3.48,1.13-7a1.45,1.45,0,0,0-.23-1.14,3.81,3.81,0,0,0-.9-.73c-.47-.34-.48-.39-1.2-1-1.31-1.06-2.79-2.12-3.9-2.92a10.35,10.35,0,0,0-1.81-1.23,8.36,8.36,0,0,0,1.78,1.67c.84.67,1.31.91,2.11,1.46a19.51,19.51,0,0,1,2.69,2.18c1,1.17.66,2.17.23,5.67A37.74,37.74,0,0,0,149.55,85.26Z" transform="translate(0.62 -8.6)"/>
    <path class="cls-8" d="M136.82,73.05l2.58-.77" transform="translate(0.62 -8.6)"/>
    <path class="cls-9" d="M138.4,73.14a.61.61,0,0,1-.35.43,1.56,1.56,0,0,1-1-.05c-1.58-.49-14.78-1.45-14.74-1.67,0-.05.61,0,6.3.33l4.73.25a8.94,8.94,0,0,0,2.2.11,5.33,5.33,0,0,0,1-.18,4.86,4.86,0,0,0,2-1.25c.9-.87.65-1.09,1.37-1.51a7.65,7.65,0,0,1,1.62-.59c1-.3,1.51-.46,1.61-.37C143.52,69,138.69,72.06,138.4,73.14Z" transform="translate(0.62 -8.6)"/>
    <path class="cls-10" d="M139.26,74.31c0-.06,2.43.15,7.56.4,2.14.1,2.83.12,2.83.15a55.19,55.19,0,0,1-6-.09A38.7,38.7,0,0,1,139.26,74.31Z" transform="translate(0.62 -8.6)"/>
    <line class="cls-8" x1="144.81" y1="67.55" x2="144.2" y2="76.12"/>
    <line class="cls-8" x1="144.83" y1="67.32" x2="144.2" y2="76.13"/>
    <path class="cls-10" d="M144.2,75.92s0,.9-.19,2.71-.26,2.35-.26,3.52a10.66,10.66,0,0,0,.16,2.36C144.11,84.52,144.27,75.92,144.2,75.92Z" transform="translate(0.62 -8.6)"/>
    <path d="M105.64,71.42c0-.19,2.16.31,3.51-.49,1.1-.66,1.08-1.82.68-5.17-.53-4.5-1-6.83.19-7.23.4-.13.59.1,2.2.11s2.51-.17,2.54-.09a14.49,14.49,0,0,0-3.23,1c-1.17.71-2.07,2.31-.76,6.3h0a6.67,6.67,0,0,0-.29,4.06c.24.92.59,1.42.19,1.82C109.7,72.64,105.6,71.68,105.64,71.42Z" transform="translate(0.62 -8.6)"/>
    <path class="cls-9" d="M86.84,68.85c.63.7,2.64,0,6.9.81,1.24.24,1.18.34,1.56.31,2.82-.21,3-4.93,6-8.74.25-.32,1.07-1.33.74-1.55-.16-.1-.48,0-1,.18a12.89,12.89,0,0,1-4.44.22L94.75,60a2.85,2.85,0,0,0-1.59.14.79.79,0,0,0-.35.43c-.26.7-1.21,1.41-3.82,4.78C87.36,67.45,86.55,68.52,86.84,68.85Z" transform="translate(0.62 -8.6)"/>
    <path d="M102,60.59a5.14,5.14,0,0,0,.5,1.84A30,30,0,0,1,104,67.26a3.24,3.24,0,0,0,.85,1.4c.17.17.25.25.3.24.53-.12-2.62-9.28-3.14-9.22C101.92,59.7,102,60.28,102,60.59Z" transform="translate(0.62 -8.6)"/>
    <path d="M104.25,68.63a34.52,34.52,0,0,0-6.7.78,14.33,14.33,0,0,0,4.44-.22A10.28,10.28,0,0,0,104.25,68.63Z" transform="translate(0.62 -8.6)"/>
    <path d="M89,69.29c.14-.09.45-.21,3.15.16a13.87,13.87,0,0,1,3.12.63c0,.17-3.14-.49-4.14.46-.4.38-.25.81-.13,1.8s0,2.27.07,3.4c.08,3.25-.23,4.87-1,5.38s-1.22.37-2.62,1.22c-.82.5-1.23.88-1.32.84s1.4-1.47,2.45-3.27a10.12,10.12,0,0,0,1.15-7.18C89.28,70.85,88.29,69.75,89,69.29Z" transform="translate(0.62 -8.6)"/>
    <path d="M101.54,62.37a28.84,28.84,0,0,1,0,4.08c0,.33-.06,1.13-.08,1.13S101.46,62.37,101.54,62.37Z" transform="translate(0.62 -8.6)"/>
    <path d="M76.1,73.27c.11-.07.29,0,.63,0l1,.05,1.26.07c.47,0,.57,0,.63,0s-.36.63-1,.85a3.3,3.3,0,0,1-1,.18c-1.62.22-1.27,4.46-1.27,4.46a19.53,19.53,0,0,1-1.62,9.42s.61-4.23.87-7.88c.13-1.76.19-2.64.19-2.71,0-1.05.15-2.1.22-3.16a3.78,3.78,0,0,0,.06-.9C76,73.52,76,73.34,76.1,73.27Z" transform="translate(0.62 -8.6)"/>
    <path d="M78.86,74.54s1,.29,2.48.81c.52.19.78.27,1.11.4a10.81,10.81,0,0,1,2.26,1.14c1.44,1.13.68,3.21.72,3.21s.06-.89.13-1.8l0-.45a5.33,5.33,0,0,0,.06-.9c-.1-.34-.59-.46-2.14-1s-1.39-.56-2.16-.79A13.67,13.67,0,0,0,78.86,74.54Z" transform="translate(0.62 -8.6)"/>
    <path d="M84.41,80.94c.64-.41.55-.79,1-.85s1.07.38,1.53.76.69.57.57.71-1-.15-2.52-.13a5.51,5.51,0,0,0-2.24.34c-.7.29-.61.53-1.32.84a4.49,4.49,0,0,1-2.24.34,6.63,6.63,0,0,0,1.61-.37c.9-.36.79-.67,1.65-1S83.75,81.35,84.41,80.94Z" transform="translate(0.62 -8.6)"/>
    <path d="M97.1,71.42c-.34,0,.74,5-1.16,11.94C94.66,88,92.21,92.87,87.3,102.6c-.55,1.09-1.32,2.6-1.15,2.66s3.51-4.16,6-8.52A39.85,39.85,0,0,0,97.6,82.09C98.39,76.33,97.43,71.43,97.1,71.42Z" transform="translate(0.62 -8.6)"/>
    <path class="cls-11" d="M137.83,85.55c-3.89-4.57-5.41-5.68-5.93-5.52-.36.11-.21.82-1,1.3a3.33,3.33,0,0,1-1.61.37l-4-6.32-3.1-.84.15,2.27-1.6,4.67-3.44-5.16-.42-3-3.69,3.2L111,79.85l.07,3.4-4.89-6.82L102.6,83l-1.28,9.21-8.44,7.49a27,27,0,0,1,12.29-1.46,23.78,23.78,0,0,1,4.51,1,18.12,18.12,0,0,1,8.75,5.89l13.7-10.37Z" transform="translate(0.62 -8.6)"/>
    <path class="cls-12" d="M122.17,74.55c-.11.18,1.94.42,3.35,1.76s.65,2,2.23,4.19c1.09,1.5,1.78,1.67,2,1.69h.06c1.15,0,1.65-.87,2.29-1,1.6-.37,4.92,4,5.1,3.89a8.37,8.37,0,0,0-2-2.6c-1.24-1.22-2-2-3-2-1.27,0-1.85,1.19-2.6,1-.55-.14-.31-.79-1.13-1.88-.69-.9-1-.68-1.48-1.44-.57-.91-.24-1.46-1.1-2.32a3.84,3.84,0,0,0-.6-.48A4.89,4.89,0,0,0,122.17,74.55Z" transform="translate(0.62 -8.6)"/>
    <path class="cls-13" d="M116.88,73.36a3.14,3.14,0,0,0-.43,1.56c0,.68.26,1.14-.1,1.35s-1.13,0-1.28.16.41.48.27.69-.62.11-.65.19,1.86.25,3.4,1.08a5.65,5.65,0,0,1,2.55,2.85c.05.15.08.23.08.23s-.19-.35-1.13-1.88l-2.28-3.51Z" transform="translate(0.62 -8.6)"/>
    <path class="cls-14" d="M106.21,76.65c-.56,0-.82,1.29-.73,1.32s.23-.59.68-.64c.73-.08,1.85,1.32,1.46,1.67-.17.15-.59.06-.65.19s.48.42.6.48c1.18.6,1.21,1.76,2,2.82a7,7,0,0,0,3.64,2.23c.05,0-.83-.43-1.81-1.23s-1.41-1.41-2.89-3.77S106.66,76.62,106.21,76.65Z" transform="translate(0.62 -8.6)"/>
    <path d="M110.82,83s0-.22.06-.9c0-.13,0-.32,0-.68.07-1,.07-1.12.1-1.35a5.59,5.59,0,0,1,.44-1.56c.74-1.75,4.07-4.48,4.41-4.3.16.09-.38.81-.46.94-.46.63-.7.64-1.27,1.24s-.38,1-1,1.3c-.4.18-.74.15-1,.4s-.1.58-.06.9c.08.66-.34.84-.76,1.77A5.7,5.7,0,0,0,110.82,83Z" transform="translate(0.62 -8.6)"/>
    <path d="M130.81,82c.1.06.69-.81,1.64-.82.36,0,1,.12,2.71,2,1.26,1.33,2,2.39,2,2.37a5.51,5.51,0,0,0-.85-1.4,10.7,10.7,0,0,0-3.27-2.89,1.71,1.71,0,0,0-.93-.28C131.27,81,130.7,82,130.81,82Z" transform="translate(0.62 -8.6)"/>
    <path class="cls-15" d="M149.51,85.95" transform="translate(0.62 -8.6)"/>
    <path class="cls-16" d="M149.11,85a17.55,17.55,0,0,1,5.43,3.68c2.11,2,4.62,4.36,4.51,7.71a8,8,0,0,1-3.95,6.58c-3.82,2.32-8.59,1.43-9.06,2.92-.22.69.61,1.46,3.56,3.36a98.75,98.75,0,0,0,8.82,5c1,.52,11.37,6,10.31,10.73-.81,3.58-7.44,3-9.4,7.66-1.59,3.76,1.55,7.17-1.62,9.42-.26.18-1.47,1-2.27.79-1.94-.63-1.24-7.73,3.78-13.16,3.34-3.61,5.48-3.16,6.05-5.12,2-6.82-23.2-15.59-21.09-19.21,1-1.63,6.17-.1,10-2.87,4.28-3.1,2.65-8.53,2.53-8.91h0C155,88.1,149,85.06,149.11,85Z" transform="translate(0.62 -8.6)"/>
    <path class="cls-17" d="M147.66,85.2c.36-.13,2.1,1.82,3.26,3.11,1.83,2.05,2.76,3.1,3.18,4.24a7.56,7.56,0,0,1,.38,3.42,5.73,5.73,0,0,1-.82,2.67c-1.65,2.54-5.85,3.48-6.9,3.71-3,.67-4.43.18-6.1,1.27a4,4,0,0,0-1.74,2.17c-.49,2.58,4.87,4.27,11.07,9,4.74,3.59,7.54,5.75,7.32,8.31-.36,4.15-8.3,4.18-10.47,9.41-2,4.78,2.06,10.32.19,10.65a17.67,17.67,0,0,1-1.91-.26c-2.07-.21-2.81.13-3.44,0-2.86-.67-.16-10.21,4.14-13.82,4.08-3.42,7-2.79,7.61-4.8,1.76-5.46-18.83-11.46-17.34-18.56a4.9,4.9,0,0,1,1.44-2.41c1.64-1.25,3.52-.8,6.76-1.68a13.31,13.31,0,0,0,5.92-3.09c.21-.22,2.34-2.55,1.64-5.35a17.4,17.4,0,0,0-3.1-5.37,5.74,5.74,0,0,1-.85-1.4C147.77,86.05,147.45,85.28,147.66,85.2Z" transform="translate(0.62 -8.6)"/>
    <path class="cls-18" d="M138.84,107.11c1.07,2.06,3.87,3.16,6.63,4.65a30.4,30.4,0,0,1,7.52,5.38,77.92,77.92,0,0,0-7-4.44c-5.57-3.08-8.42-3.54-9.08-5.68a3.32,3.32,0,0,1,1.2-3.55c1-.84,2.39-1,4.52-1.35a16.44,16.44,0,0,1,5.07-.19,21,21,0,0,1-3.53.72,14.17,14.17,0,0,0-3.86.93,3.63,3.63,0,0,0-1.67,1.27A2.25,2.25,0,0,0,138.84,107.11Z" transform="translate(0.62 -8.6)"/>
    <path class="cls-18" d="M168.19,125.62c-1.18,2-4.58,3.27-5.31,3.57-6.08,2.49-6.92,9-7.27,8.9s.38-6.65,5.41-9.45c.51-.28,3.05-1.64,4.05-3.64a3.94,3.94,0,0,0,.43-1.56,4.7,4.7,0,0,0-.76-2.53c-1.78-2.78-11.15-7.82-11.14-7.83a107.9,107.9,0,0,1,10.64,6,18.45,18.45,0,0,1,3,2.65c1,1.1,1.4,1.79,1.4,2.56A2.6,2.6,0,0,1,168.19,125.62Z" transform="translate(0.62 -8.6)"/>
    <path class="cls-8" d="M134,85.81" transform="translate(0.62 -8.6)"/>
    <path class="cls-4" d="M179.41,136.69,196,149.43,209,172H-.62V129.58c19.27-8.25-2.76-16.93,38.12-22.11-1,0,13.11-7.1,19.42-10.52a23,23,0,0,0,2.9-1.71c.1-.1.08-.13-.08-.1-.35-.42,1.36.16,4,1.2,2.27.89,5.22,2.1,8.18,3.32h0l2.7,1.11c5.34,2.19,9.94,4,9.39,3.36l2.27-2.25,1.34.07,1.18.06h0l.48,0h0l.5,0,.76-.88h0l2.67-3.09.25,1.1,0,.1,0,.21.49,2.19,5.55.89L101,106.8l6.09,3.28,1.69-4.06,4.34,3.19,3.78,1.38.62-2,1.09-3.58,1.49-4.89.41-.33,2.93-2.34h0l2.22-1.77,3.18-2.6.92-.75a2.71,2.71,0,0,1,0-.28c0-.44.1-.88.15-1.32a1.07,1.07,0,0,1,0-.15l.76-6.79-.59-1.56-.19-.53-.05-.15-1.53-4.09,7.32.88h.08l1.3.16.15.18a12.55,12.55,0,0,0,1,1c.25.23.53.47.85.71a17.69,17.69,0,0,0,4.63,2.45h0l0,0,.31.13c.63.28,1,.55,1.09,1a1.45,1.45,0,0,1-.65,1.18,5.9,5.9,0,0,1-.55.42l-.13.1h0c-.32.21-.68.42-1.05.64h0c-.43.24-.89.48-1.34.72s-.86.43-1.23.59l-.63.25c-1.42.55-2.11.6-2.51,1.3-.89,1.59,1.15,4.11,2.77,5.48h0a19.4,19.4,0,0,0,2.7,1.67c.38.21.71.36,1,.49h0L144,97c.55.25.82.35.87.49a.13.13,0,0,1,0,.06c0,.17-.29.27-.78.35h0c-.59.09-1.48.14-2.52.23a32,32,0,0,0-4.22.57h0c-.47.1-.94.22-1.4.36a9,9,0,0,0-4,2.26c-.59.63-.57.79-1.43,2.92l-.11.28-.11.27a11.12,11.12,0,0,1-.72,1.46,13.1,13.1,0,0,1-1,1.43h0l-.26.32c-2.83,3.38-6.59,5-4.43,6,1.12.52,2.29,1.1,3.53,1.72l1.75.9h0l2.45,1.27,3.74,2,.51.26,2.89,1.48,2.19,1.1q1.84.91,3.78,1.83l1.44.67q1.64.76,3.35,1.5l2.29,1,.2.08h0c2.14.88,4.35,1.73,6.63,2.52l.17.06.06,0,1,.34.27.09.25.08C174.39,135.44,169.87,132.72,179.41,136.69Z" transform="translate(0.62 -8.6)"/>
    <path class="cls-4" d="M139.3,113.93a9.15,9.15,0,0,0-1.15,2.66l-2.93,1.2,3.51-.49Q139.5,114,139.3,113.93Z" transform="translate(0.62 -8.6)"/>
    <path class="cls-4" d="M146.12,98.16a1.72,1.72,0,0,0,.6-1.24L147,94.8l.74,3.6-8.2,1.58a22.67,22.67,0,0,1,3.57-1C144.49,98.79,145.46,98.73,146.12,98.16Z" transform="translate(0.62 -8.6)"/>
    <path d="M138.78,112.32a6.91,6.91,0,0,0-4-1.11l-4.29,2.49,5-3.36C138.08,111.88,138.79,112.31,138.78,112.32Z" transform="translate(0.62 -8.6)"/>
    <path class="cls-18" d="M157.6,101.08a8.3,8.3,0,0,1-3.36,2.77,10.79,10.79,0,0,1-5.45,1.07c-.06-.14,3.33-.29,5.85-2.18a8.15,8.15,0,0,0,2.43-3,7.82,7.82,0,0,0,.85-3.13,8.62,8.62,0,0,0-.17-2c-.83-3.76-5.87-7.94-5.76-8s1.2,1,1.2,1C155.86,90,158,92,158.67,95A7.21,7.21,0,0,1,157.6,101.08Z" transform="translate(0.62 -8.6)"/>
    <path class="cls-13" d="M123.73,88.21q.13.11,1.29-.38c-.45.66-.46.84-.38.89s.31-.12.65-.19a2.61,2.61,0,0,1,1.56.31,35.28,35.28,0,0,1,3.34,2,10.7,10.7,0,0,0-3-2.65,20,20,0,0,0-2.12-1.25Q123.57,88.07,123.73,88.21Z" transform="translate(0.62 -8.6)"/>
    <path class="cls-13" d="M113.91,93.62a14.16,14.16,0,0,0,3-1.33,1.61,1.61,0,0,1,.81-.26c1,0,1.72,1,1.86,1s-.47-.63-.27-.8c.36-.3,2.88.91,3,.81s-1-.51-2.65-1.45c-.8-.47-1.15-.72-1.67-.7s-.87.35-1.43.81C115.08,92.95,113.84,93.56,113.91,93.62Z" transform="translate(0.62 -8.6)"/>
    <path class="cls-18" d="M115.57,91.86" transform="translate(0.62 -8.6)"/>
    <path class="cls-13" d="M110.11,98.17a14.16,14.16,0,0,0,3-1.33c.11-.06.43-.11.81-.26a8.57,8.57,0,0,0,1.32-.67c1.23-.63,3.44.26,3.46.18s-2.74-1.41-4.69-.7c-.29.11-.34.18-1.28.86C111.08,97.49,110,98.12,110.11,98.17Z" transform="translate(0.62 -8.6)"/>
    <path d="M118.43,100.61c-.73.69-3.17.15-3.17.06s1.86.32,2.55-.32c.5-.46-.08-1,.18-2.48.09-.51.28-1.12.4-1.11s-.07,1,.12,2.71C118.59,100.15,118.66,100.39,118.43,100.61Z" transform="translate(0.62 -8.6)"/>
    <path class="cls-19" d="M74.37,88.79,69,89l-3.22,5.26-2,2.16-5.57-1.65L55.33,97.6l2.55-3.78,5.31,1L67.47,88l6.35-.35a25.36,25.36,0,0,0,7.81,1.32c2.36-.26,2.55-.32,2.55-.32a2.2,2.2,0,0,1,1.28-.16,1,1,0,0,1,.6.48,1.28,1.28,0,0,1-.36.66,3,3,0,0,1-1.31.61,5.58,5.58,0,0,1-1.92.35c-.71,0-1.05-.21-1.26-.07s.23.7-.06.9a1.24,1.24,0,0,1-1-.05c-.52-.21-.55-.56-.88-1a4.15,4.15,0,0,0-1.83-1A10,10,0,0,0,74.37,88.79Z" transform="translate(0.62 -8.6)"/>
    <path class="cls-19" d="M79.9,93.92a7.5,7.5,0,0,0-2.64,1.18,4.48,4.48,0,0,0-1.61,2.77c-.18,1.17.36,1.46-.13,2.14a2.75,2.75,0,0,1-2.33,1.09c-.38-.15-.1-.63-.52-.8s-.86.06-2.13.57c-2.19.87-2.35.91-2.38.87s.9-1.29,2.48-1.84c1.82-.63,2.92.08,3.76-.54.65-.48.16-1,.69-2.53a5,5,0,0,1,1.66-2.55c.52-.39,1.1-.63,4.87-1.31,2.2-.39,4.06-.68,4.07-.63S83.22,92.86,79.9,93.92Z" transform="translate(0.62 -8.6)"/>
    <path class="cls-20" d="M86.7,93.29c-.08,0-.13.49-.08,1.13.17,2,1.15,2.6.71,3.43-.36.67-1.34,1-2.3,1.24a9.75,9.75,0,0,1-4.13.23,5.23,5.23,0,0,0,2.14,1,6.57,6.57,0,0,0,3.17-.06,12.9,12.9,0,0,0,3.2-5A10.51,10.51,0,0,0,89.88,93a1.55,1.55,0,0,0-1,.4c-.21.26,0,.51-.06.9a1.67,1.67,0,0,1-.71,1.09,4.12,4.12,0,0,1-.88-1C86.84,93.82,86.79,93.28,86.7,93.29Z" transform="translate(0.62 -8.6)"/>
    <path d="M79.57,102.51c.1,0-.17-.39-.71-1.14-.93-1.3-1-1.48-1.36-1.52-.87-.1-2,1-1.79,1.2.07.05.25,0,.62,0a3,3,0,0,1,1.28.36C78.84,102,79.44,102.55,79.57,102.51Z" transform="translate(0.62 -8.6)"/>
    <path d="M74.17,90.86c.11,0,.15.39.5,1s.39.44.53.73.3,1.16-.19,1.35-1.43-.21-1.5-.59.35-.32.41-.65c.09-.47-.62-1.07-1.41-1.25-1-.24-1.78.21-1.91.06s.65-1,1.73-1a1.69,1.69,0,0,1,1.47.81.83.83,0,0,1-.1.67S73.93,90.87,74.17,90.86Z" transform="translate(0.62 -8.6)"/>
    <path class="cls-9" d="M113.08,54.52c-1,1.46-1.6,2-1.39,2.57.46,1.16,4.06.58,4.08.82s-1.91.51-4.13.49c-1.3,0-2,0-2.15-.3-1.06-1.52,5.77-8.37,6.12-8.09C115.81,50.18,114.35,52.68,113.08,54.52Z" transform="translate(0.62 -8.6)"/>
  </g>
  <g id="profesor">
    <g id="Legs">
      <polygon class="cls-21" points="34.97 151.78 34.87 161.74 34.85 163.37 24.98 163.37 24.92 160.66 24.73 151.54 34.97 151.78"/>
      <polygon class="cls-21" points="48.25 152.01 48.21 155.27 48.17 159.7 48.13 163.37 38.24 163.37 38.21 161.57 38.02 152.57 38.02 152.56 38 151.78 48.25 152.01"/>
    </g>
    <g id="Upper_body" data-name="Upper body">
      <path class="cls-22" d="M51.8,140.72c.14,1.91.4,5.73.4,6.61,0,1.16,1.4,0,1.4,0s1-2.56,1.61-2.73c.09,0,.19,0,.26.16.47.93,2.56,0,3.49-.23s.7-.7,1.63-2.8c.72-1.61-.21-6.24-.7-8.32-.14-.63-.23-1-.23-1l.7-.47v-4.43s-4.89,2.33-7.45.23l-.23,3.49s.7.7.7,1.16a16.35,16.35,0,0,1-1.49,2.86Z" transform="translate(0.62 -8.6)"/>
      <path class="cls-23" d="M59.65,132.43" transform="translate(0.62 -8.6)"/>
      <line class="cls-23" x1="60.27" y1="123.83" x2="53.98" y2="123.83"/>
      <path class="cls-22" d="M17.91,135.76a16.35,16.35,0,0,1-1.49-2.86c0-.47.7-1.16.7-1.16l-.23-3.49c-2.56,2.1-7.45-.23-7.45-.23v4.43l.7.47-.23,1c-.47,2.07-1.4,6.68-.7,8.32.93,2.1.7,2.56,1.63,2.8s3,1.16,3.49.23c.07-.14.16-.19.26-.16.58.14,1.61,2.73,1.61,2.73s1.4,1.16,1.4,0c0-.86.26-4.7.4-6.61Z" transform="translate(0.62 -8.6)"/>
      <path class="cls-22" d="M51.82,128.24c0-.07.42-.14.49-.14a.85.85,0,0,1,.77.21c.19.16,1.09.16,1.09.42,1.47-.12,2.12.37,3.59.37a21.1,21.1,0,0,1,3.42-.19c.21,0,.37.12.58,0a2.31,2.31,0,0,0,.4-.26,2.93,2.93,0,0,0,.77-.75,1.89,1.89,0,0,0,.33-1.54C62.79,124.51,62,68.93,48.82,70.7c0,0,1.33-3.1-4.24-4.94s-17,0-17,0S22,67.68,23.2,70.94c0,0-1.4-1.16-4.43,2.1s-5.59,9.55-5.59,9.55-.7-.23-2.8,8.62-2.8,34.94-2.8,34.94.07,1.19,1.86,1.86c0,0,4.89,2.33,7.45.23l.93-.23.09,7.76c.21.37.37.63.37.63l-.23,3.73s0,.42-.07,1.07l.3,25.95s12.81,7.22,32.84,0l.47-26a9.56,9.56,0,0,1,0-2.7S51.82,128.24,51.82,128.24Z" transform="translate(0.62 -8.6)"/>
      <path class="cls-22" d="M18.28,136.39,18,140.11s0,.42-.07,1.07l-.07-5.43C18.12,136.13,18.28,136.39,18.28,136.39Z" transform="translate(0.62 -8.6)"/>
      <g id="Upper_details" data-name="Upper details">
        <polyline class="cls-23" points="18.2 80.5 18.43 118 17.5 119.63"/>
      </g>
      <path class="cls-23" d="M11.53,143.84l.4,1.44Z" transform="translate(0.62 -8.6)"/>
      <path class="cls-23" d="M14.32,143.84l.28,1.35Z" transform="translate(0.62 -8.6)"/>
      <path class="cls-23" d="M52.33,128l-.28-38.71Z" transform="translate(0.62 -8.6)"/>
      <path class="cls-24" d="M18,86.54" transform="translate(0.62 -8.6)"/>
      <path class="cls-23" d="M10.13,132.89" transform="translate(0.62 -8.6)"/>
      <line class="cls-23" x1="10.75" y1="124.29" x2="17.04" y2="124.29"/>
      <path class="cls-23" d="M58.25,143.38l-.4,1.44Z" transform="translate(0.62 -8.6)"/>
      <path class="cls-23" d="M55.45,143.38l-.28,1.35Z" transform="translate(0.62 -8.6)"/>
    </g>
    <g id="Necklace">
      <g id="Necklace-2" data-name="Necklace">
        <path class="cls-25" d="M29.27,74.36l2.14.09-2.14-.09,2.14.09s-.68,3,1.35,3.38,3.82.21,4.5-.79a7.43,7.43,0,0,0,.91-2.59l1.79.61s-.44,4.38-2,4.38c0,0-6.06,2-7.85-1,0,0-2-.79-.82-4.08s2.14.09,2.14.09l-2.14-.09" transform="translate(0.62 -8.6)"/>
        <g>
          <path class="cls-26" d="M26.43,64.88s-2.1.23-1.75,1.86,3.14,3.49,3.14,3.49,2.1,4.89.93,5.82S25.5,87.47,25.5,87.47v13.74s3,8.39,5.82,12.34c0,0-4.43,2.8-2.8,6.06,0,0,.93,3.49,4,3.73s5.36-.7,6.06-2.33c0,0,1.63-1.4,0-4.89s-2.8-2.8-2.8-2.8l5.82-11.65s.47-12.58.23-16.07a72.56,72.56,0,0,0-1.86-9.78s-.7-2.8,2.33-5.36S46,67.68,46,67.68s1.4-.93.47-1.86a7.2,7.2,0,0,0-2.8-1.4L43.9,67s-6.06,4.89-6.06,6.29,4.19,25.39.93,28.88L34.12,113.1H32.49s-4.43-8.39-4.19-10c0,0-1.63-5.82-1.16-10.48s4-17.47,4-17.47a19.7,19.7,0,0,0-1.4-5.36L26.9,67Z" transform="translate(0.62 -8.6)"/>
          <path class="cls-27" d="M26.43,64.88s-2.1.23-1.75,1.86,3.14,3.49,3.14,3.49,2.1,4.89.93,5.82S25.5,87.47,25.5,87.47v13.74s3,8.39,5.82,12.34c0,0-4.43,2.8-2.8,6.06,0,0,.93,3.49,4,3.73s5.36-.7,6.06-2.33c0,0,1.63-1.4,0-4.89s-2.8-2.8-2.8-2.8l5.82-11.65s.47-12.58.23-16.07a72.56,72.56,0,0,0-1.86-9.78s-.7-2.8,2.33-5.36S46,67.68,46,67.68s1.4-.93.47-1.86a7.2,7.2,0,0,0-2.8-1.4L43.9,67s-6.06,4.89-6.06,6.29,4.19,25.39.93,28.88L34.12,113.1H32.49s-4.43-8.39-4.19-10c0,0-1.63-5.82-1.16-10.48s4-17.47,4-17.47a19.7,19.7,0,0,0-1.4-5.36L26.9,67Z" transform="translate(0.62 -8.6)"/>
        </g>
        <path class="cls-28" d="M30.18,116.66s1.44-3.59,4.54-2.17,3.12,3.59,3.12,3.59-.35,3.54-3.28,3.68a4.72,4.72,0,0,1-4.12-1.54A3.77,3.77,0,0,1,30.18,116.66Z" transform="translate(0.62 -8.6)"/>
        <path class="cls-29" d="M31.65,117.64s.84-2.07,2.63-1.26,1.79,2.07,1.79,2.07-.21,2-1.91,2.14a2.74,2.74,0,0,1-2.4-.89A2.21,2.21,0,0,1,31.65,117.64Z" transform="translate(0.62 -8.6)"/>
        <path class="cls-30" d="M32.3,117.82s.65-1.63,2-1,1.42,1.63,1.42,1.63-.16,1.61-1.49,1.68a2.11,2.11,0,0,1-1.86-.7A1.78,1.78,0,0,1,32.3,117.82Z" transform="translate(0.62 -8.6)"/>
      </g>
    </g>
    <g id="Hair">
      <g id="third">
        <ellipse class="cls-31" cx="32.71" cy="28.07" rx="18.68" ry="22.57"/>
      </g>
      <g id="Head">
        <path class="cls-32" d="M23.17,27.38s.7,21.2-.47,21.66,3.49,6.75,3.73,8.15,1.16,8.85.47,9.55,3,3,3,3L41.11,70s2.1-2.8,3.26-3c0,0,.47-8.15.93-9.32a35,35,0,0,1,3-5.12c.65-.82.4-1.63.42-3.61s0-22.94,0-22.94,1.63-6.52-4.19-8.62-17.93-.47-17.93-.47Z" transform="translate(0.62 -8.6)"/>
      </g>
      <path id="light1" class="cls-33" d="M25.55,55.91s-.7-1.63-.93-1.63-2.07-.23-2.07-.23-1.37-.93-.93-1.4-2.07-.47-2.07-.47-4.15-1.63-2.31-2.33-1.14-1.63-1.14-1.63-1.84-1.4-.23-2.33-1.14,0-1.14,0-7.62-1.63-4.61-4c0,0-5.31-4.19-2.07-6.52s-.75-2.8,5.47-5.36c0,0-.86-3.73,1-4s2.28-3.26,2.28-3.26-1.58-3.73,1.16-3.73c0,0,.7-5.59,5.31-6.75,0,0,2.77-.93,3.24,0s4.38-6.29,7.38-2.8,4.38,1.4,5.08,0,3-.7,2.31,2.33,4.61,1.4,4.61,1.4,5.54.47,1.61,4.89c0,0,5.54,0,3.91,4.66s6,0,6.22,2.8,7.85,3.73,2.31,7,.47,1.4.47,1.4,7.85,3,.47,7.69c0,0,0,5.59-2.77,3.73,0,0-1.37.23-1.61,2.56s-2.07,1.63-2.07,1.63S50.94,51,52.31,52s-.93,2.1-1.37,1.86S48.86,55,48.86,55l-2.54,1.16s1.23-2.68,1.37-3,.26-.65.37-1a8.53,8.53,0,0,0,.56-2.54c0-2.1,3.24-8.39,3.24-8.39s-1-5.12-.35-7.22c.47-1.4-5.17-5.87-6.1-7.22a5.59,5.59,0,0,1,0-6.06c.51-.7-3.68-.47-3.68-.47s-5.31-1.86-6-3.26c0,0-1.93,4-3.56,3.73s-3.35.93-4.52-.7a4,4,0,0,0-3.45-1.4s-1.14,4.19-3.68,4.89S19.4,28,19.4,28s2.77,1.86,2.07,3.26-3.94,3.26-3.94,3.26S12.2,39.84,14,41.24a9.79,9.79,0,0,0,4.43,1.63s-1.14,3.73-.23,3.49,1.37,1.4,1.37,1.4-.47,4.43,2.07,3.49Z" transform="translate(0.62 -8.6)"/>
      <g id="dark2">
        <path class="cls-34" d="M34.38,17.13s-.26,3.19-4.7,2.7-4,4.43-4,4.43-.75,4.43-2,3.94-.49,7.62-.49,7.62L22.75,51s-.09,4.43,1.56,5.64-5-3.94-5-3.94-3-5.4-.26-5.15-4-5.24-4-5.24-2.89-2.66.82-4.12c0,0-2.91,1.23-2.86,1.23a24,24,0,0,0,6.82-4.64s3-4.43.49-5.15S18.54,25,19.77,25s4.7-3.19,4-3.94-.49-3.68,2-2.45,7.66-2.93,7.66-2.93,2-1.72,2.21-.26A1.44,1.44,0,0,1,34.38,17.13Z" transform="translate(0.62 -8.6)"/>
      </g>
      <path id="dark1" class="cls-34" d="M47.28,53.59s3.73-.93,3-4a10.51,10.51,0,0,1,.16-5.43,19.25,19.25,0,0,0,2.63-5.29c1.12-3.68-1.4-3.26-1.63-5.12-.3-2.38-.93-2.56-2.33-4s-4.43-4.19-4.43-4.19,4.66,7.22,4.43,10.48S47.28,53.59,47.28,53.59Z" transform="translate(0.62 -8.6)"/>
    </g>
    <g id="Face">
      <g id="Nose">
        <path class="cls-23" d="M32.72,42.64a2.17,2.17,0,0,1,1.63.91c.47.84,1.86-.23,1.86-.23s.7-1,1.16-.7,1.86-2.28-.23-3l-.23-5.05" transform="translate(0.62 -8.6)"/>
      </g>
      <g id="mouth">
        <path class="cls-35" d="M39.83,47.3c0,1.16-2.77,2.8-4.77,2.8s-5-1.86-5-3,3.12-.23,5.12-.23S39.83,46.13,39.83,47.3Z" transform="translate(0.62 -8.6)"/>
      </g>
      <g id="eyebrows">
        <path class="cls-36" d="M24.22,29.36c.16-1.14,3.28-3,5.26-2.68s4,2,3.82,3.14-2.21-.89-4.19-1.16S24.06,30.5,24.22,29.36Z" transform="translate(0.62 -8.6)"/>
        <path class="cls-36" d="M45.88,29.36c-.16-1.14-3.28-3-5.26-2.68s-4,2-3.82,3.14S39,28.94,41,28.66,46,30.5,45.88,29.36Z" transform="translate(0.62 -8.6)"/>
      </g>
      <g id="moustache">
        <path class="cls-36" d="M34.47,44.2a9.77,9.77,0,0,1,0,2.63c-.23.47-2.8,1.61-4.89.61S29.34,46,29.34,46l3.26-.21L33.07,44S34.47,43.41,34.47,44.2Z" transform="translate(0.62 -8.6)"/>
        <path class="cls-36" d="M35.68,44.2a9.77,9.77,0,0,0,0,2.63c.23.47,2.8,1.61,4.89.61S40.8,46,40.8,46l-3.26-.21L37.08,44S35.68,43.41,35.68,44.2Z" transform="translate(0.62 -8.6)"/>
      </g>
      <g id="eye">
        <path class="cls-37" d="M25.73,34.37S26,31,28.18,30.83a3,3,0,0,1,3,1.7s1.35,2.45-.28,4.12-3.12.93-3.12.93A3.56,3.56,0,0,1,25.73,34.37Z" transform="translate(0.62 -8.6)"/>
      </g>
      <g id="eyes">
        <path class="cls-38" d="M28.69,33.2a.84.84,0,0,1,.86.84.8.8,0,0,1-.12.75.93.93,0,0,1-.75.12c-.86-.12-.86-.63-.86-.84A.89.89,0,0,1,28.69,33.2Z" transform="translate(0.62 -8.6)"/>
      </g>
      <g id="second_eye" data-name="second eye">
        <g>
          <path class="cls-39" d="M38.66,34.37s.3-3.4,2.49-3.61a3.12,3.12,0,0,1,3.05,1.75s1.37,2.49-.3,4.19-3.19,1-3.19,1A3.68,3.68,0,0,1,38.66,34.37Z" transform="translate(0.62 -8.6)"/>
          <path class="cls-40" d="M38.66,34.37s.3-3.4,2.49-3.61a3.12,3.12,0,0,1,3.05,1.75s1.37,2.49-.3,4.19-3.19,1-3.19,1A3.68,3.68,0,0,1,38.66,34.37Z" transform="translate(0.62 -8.6)"/>
        </g>
        <path class="cls-38" d="M41.9,33.18a.86.86,0,0,1,.89.86.91.91,0,0,1-.12.77,1,1,0,0,1-.77.12c-.89-.12-.89-.65-.89-.86A1,1,0,0,1,41.9,33.18Z" transform="translate(0.62 -8.6)"/>
      </g>
    </g>
  </g>
</svg>
