<svg id="Layer_1" data-name="Layer 1" xmlns="http://www.w3.org/2000/svg" viewBox="0 0 164.91 165.22">
  <defs>
    <style>
      .cls-1 {
        fill: #f5b7c9;
      }

      .cls-2 {
        fill: #ed4a67;
      }

      .cls-10, .cls-3, .cls-6, .cls-7, .cls-9 {
        fill: #fff;
      }

      .cls-11, .cls-4, .cls-5, .cls-8 {
        fill: none;
      }

      .cls-10, .cls-4, .cls-5, .cls-6, .cls-7, .cls-8, .cls-9 {
        stroke: #fff;
      }

      .cls-10, .cls-11, .cls-4, .cls-5, .cls-6, .cls-7, .cls-8, .cls-9 {
        stroke-miterlimit: 10;
      }

      .cls-10, .cls-11, .cls-4 {
        stroke-width: 2px;
      }

      .cls-6 {
        stroke-width: 0.5px;
      }

      .cls-7 {
        stroke-width: 0.25px;
      }

      .cls-8, .cls-9 {
        stroke-width: 3px;
      }

      .cls-11 {
        stroke: #ed4a67;
      }
    </style>
  </defs>
  <title>menu</title>
  <g id="nav-menu">
    <path class="cls-1" d="M374.1,78.9l.8,82,81,.19S458.09,82.1,374.1,78.9Z" transform="translate(-291 -78.9)"/>
    <path class="cls-1" d="M455.65,162.07l-82,.86-.14,81S452.51,246.06,455.65,162.07Z" transform="translate(-291 -78.9)"/>
    <path class="cls-1" d="M291,161l82-.76.24-81S294.24,77,291,161Z" transform="translate(-291 -78.9)"/>
    <path class="cls-1" d="M372.13,162.12l-81-.24s-2.24,79,81.75,82.24ZM336,194v0Zm-1,15h0Z" transform="translate(-291 -78.9)"/>
    <ellipse class="cls-2" cx="83" cy="82.6" rx="41" ry="40.5"/>
    <g id="envelope">
      <path class="cls-3" d="M428.12,199a.89.89,0,0,1,.88.88v14.24a.89.89,0,0,1-.88.88H407.88a.89.89,0,0,1-.88-.88V199.88a.89.89,0,0,1,.88-.88h20.24m0-2H407.88a2.89,2.89,0,0,0-2.88,2.88v14.24a2.89,2.89,0,0,0,2.88,2.88h20.24a2.89,2.89,0,0,0,2.88-2.88V199.88a2.89,2.89,0,0,0-2.88-2.88Z" transform="translate(-291 -78.9)"/>
      <path class="cls-4" d="M406,200c3.1,2.45,9.37,8.4,9.44,8.46a6.89,6.89,0,0,0,2.22,1.36c1.17.24,2.34-.85,2.84-1.32,3.11-2.89,6.59-5.41,9.5-8.5h0" transform="translate(-291 -78.9)"/>
    </g>
    <g id="pen">
      <path class="cls-4" d="M334.39,196H321.8a3.81,3.81,0,0,0-3.8,3.8v12.4a3.81,3.81,0,0,0,3.8,3.8h12.4a3.81,3.81,0,0,0,3.8-3.8V209" transform="translate(-291 -78.9)"/>
      <path class="cls-5" d="M339,196a1.39,1.39,0,0,1,2,0l2,2a1.39,1.39,0,0,1,0,2l-1,1-4-4Z" transform="translate(-291 -78.9)"/>
      <path class="cls-6" d="M336.5,198.5l4,4-9,9h-4v-4Z" transform="translate(-291 -78.9)"/>
    </g>
    <path id="earth" class="cls-7" d="M328.5,105A11,11,0,1,0,340,116,11.26,11.26,0,0,0,328.5,105Zm6.29,7.13c-.08.29-.45.4-.75.39a2.3,2.3,0,0,0-.91,0c-.28.11-.46.53-.22.72a4.19,4.19,0,0,0-2.19,1.85l-1.4,1.89c-.11.14-.18.4-.06.48a2.93,2.93,0,0,0-1-.28,1,1,0,0,0-1,.44,1.56,1.56,0,0,0-.14.91,1.59,1.59,0,0,0,.21.89.57.57,0,0,0,.8.16,1.54,1.54,0,0,1,.17-.19c.22-.14.49.09.64.3.44.58.87,1.15,1.28,1.75a12.1,12.1,0,0,1,2.82.12,2.85,2.85,0,0,1,1.67.72c-.55.77-1.11,1.54-1.66,2.32a.47.47,0,0,1-.25.19c-.14,0-.26-.1-.39-.17-.6-.35-1.39.54-2,.2a8.32,8.32,0,0,1,.18-2.34,1.21,1.21,0,0,1-.84-.17,1.86,1.86,0,0,1-.3-.38,3.77,3.77,0,0,0-1.63-.87c-.57-.25-1.13-.84-.91-1.42a2,2,0,0,1-1.95-.4,6.85,6.85,0,0,1-.92-1.33c-.58-.86-1.45-1.5-2.08-2.34a2.59,2.59,0,0,1-.38-2.9,1.33,1.33,0,0,1-.74-1.44c.19-1.39,1.79-2.55,3-2.87a3,3,0,0,0,.67-.17c.24-.11.51-.55.73-.58.64-.11.8,1.1,1.64.61l.51-.8-.35-.2a1.34,1.34,0,0,1,1.61.69,1,1,0,0,1,.84-.28c.3.09.48.51.25.72a2.21,2.21,0,0,0-1.69.49,1.53,1.53,0,0,0-.64.74.65.65,0,0,0,.33.83,1.47,1.47,0,0,0,.42,0,2.75,2.75,0,0,1,1.62.93,1.15,1.15,0,0,0,.46.3.39.39,0,0,0,.47-.19.53.53,0,0,0,0-.25,7.35,7.35,0,0,1-.21-1.12.86.86,0,0,1,.55-.89c.38-.1.73.18,1.05.4.95.63,2.3,1,2.59,2.09A.63.63,0,0,1,334.79,112.13Z" transform="translate(-291 -78.9)"/>
    <g id="lupa">
      <circle class="cls-8" cx="125.5" cy="35.6" r="9.5"/>
      <path class="cls-9" d="M424,120l8,8s.82,1.64-1.26,1.95a1.44,1.44,0,0,1-1.21-.42L422,122" transform="translate(-291 -78.9)"/>
    </g>
    <g id="hearth">
      <path class="cls-10" d="M374,155a8.16,8.16,0,0,1,10-2c6,3,2,10,2,10l-12,12" transform="translate(-291 -78.9)"/>
      <path class="cls-10" d="M375.31,155a8.16,8.16,0,0,0-10-2c-6,3-2,10-2,10l12,12" transform="translate(-291 -78.9)"/>
      <path class="cls-11" d="M363,165h7l1.81-6.35a.2.2,0,0,1,.39,0l3.58,11.64a.2.2,0,0,0,.38,0l1.72-7.71a.2.2,0,0,1,.37-.05L380,166h6" transform="translate(-291 -78.9)"/>
    </g>
  </g>
</svg>
