<svg id="Layer_1" data-name="Layer 1" xmlns="http://www.w3.org/2000/svg" xmlns:xlink="http://www.w3.org/1999/xlink" viewBox="0 0 95.06 99.01">
  <defs>
    <style>
      .cls-1 {
        fill: #f9e3b7;
      }

      .cls-2 {
        fill: url(#radial-gradient);
      }
    </style>
    <radialGradient id="radial-gradient" cx="698.62" cy="-363.63" r="90.92" gradientTransform="matrix(0.26, 0.01, 0.02, -0.44, -113.07, -80.91)" gradientUnits="userSpaceOnUse">
      <stop offset="0" stop-color="#636363"/>
      <stop offset="1" stop-color="#292929"/>
    </radialGradient>
  </defs>
  <title>take-a-break2</title>
  <g>
    <path class="cls-1" d="M61.6,32.54c-9.75,0-13.67,10.19-13.67,15.68,0,3.75,2.54,7,6.28,8.71C52,60.14,47.73,67.19,46.35,74.77l-.94-10.85h-6.6l.52,28.27,2.05.2-1,9-3.06,0,.52,9.72,11.72-1L38.81,128.43h6.6L53,111.19,62.1,128l6.59.88L58.56,109.43h-.23l15.42-1.33-.8-5.56c6-.63,9.79-.43,10.42,5.06A131.65,131.65,0,0,1,84,122.12l-4.16,7.64,23.79-.89v-.44h1l6.43-15.69L118.29,128h9.63l-13.46-23.5,4.85-11.85V86l-31.38.89v5.29h23.79L98.15,124.54l-6.53-2c2.48-8.47,5.55-22.37.36-26-7.59-5.3-24.82-.88-29.88-7.07-.65-.8-1-8.85-1.17-11.34C63.32,80,67.07,83,70,82.85A123.81,123.81,0,0,1,86.22,83l3.73.52V86l26.32-.44,12.16-25.63h-4.06L114.75,82l-13.46.23c-4.67-3.19-4.64-5.51-12.78-5a39.84,39.84,0,0,1-17.25-.35c-2.77-.74-7.51-5.6-9.91-6.46.13-4.72,0-8.89.33-12.37,5.95-.64,9-.39,10.56-9.86.87-5.44,2.15-15.68-10.64-15.68Zm-17,60.2,2.12.21c.73,3.49,2.09,6.44,4.62,8.34l-7.24.1.51-8.65Z" transform="translate(-37.29 -30.75)"/>
    <path class="cls-2" d="M65.53,30.75c-9.75,0-13.67,10.19-13.67,15.68,0,3.75,2.54,7,6.28,8.71C56,58.35,51.66,65.4,50.28,73l-.94-10.85h-6.6l.52,28.27,2.05.2-1,9-3.06,0,.52,9.72,11.72-1L42.74,126.64h6.6l7.59-17.24L66,126.2l6.59.88L62.49,107.64h-.23l15.42-1.33-.8-5.56c6-.63,9.79-.43,10.42,5.06a131.65,131.65,0,0,1,.62,14.52L83.76,128l23.79-.89v-.44h1L115,111l7.22,15.25h9.63l-13.46-23.5,4.85-11.85V84.22l-31.38.89V90.4h23.79l-13.57,32.35-6.53-2c2.48-8.47,5.55-22.37.36-26-7.59-5.3-24.82-.88-29.88-7.07-.65-.8-1-8.85-1.17-11.34,2.39,1.82,6.14,4.87,9,4.71a123.81,123.81,0,0,1,16.24.17l3.73.52v2.47l26.32-.44,12.16-25.63H128.3l-9.62,22.09-13.46.23c-4.67-3.19-4.64-5.51-12.78-5a39.84,39.84,0,0,1-17.25-.35c-2.77-.74-7.51-5.6-9.91-6.46.13-4.72,0-8.89.33-12.37,6-.64,9-.39,10.56-9.86C77,41,78.32,30.75,65.53,30.75ZM48.58,91l2.12.21c.73,3.49,2.09,6.44,4.62,8.34l-7.24.1L48.59,91Z" transform="translate(-37.29 -30.75)"/>
  </g>
</svg>
